<svg xmlns="http://www.w3.org/2000/svg" viewBox="0 0 45 45" fill="#eee"><title>chcekpoint</title>
  <g>
    <path d="M22.5,45l-1.25684-1.84395c-.0334-.04922-3.44882-5.06967-6.8152-10.939-4.61607-8.04369-6.95561-13.8284-6.95561-17.18943a15.02765,15.02765,0,0,1,30.0553,0c0,3.3627-2.33963,9.14574-6.95381,17.18943-3.3662,5.86931-6.78145,10.88768-6.8152,10.939Zm0-41.955A11.99613,11.99613,0,0,0,10.517,15.028c0,5.161,7.7521,18.06647,11.983,24.52843C26.731,33.09488,34.48476,20.189,34.48476,15.028A11.99879,11.99879,0,0,0,22.5,3.045Z" />
    <path d="M22.5,23.43165a7.2472,7.2472,0,1,1,7.2472-7.2472A7.25638,7.25638,0,0,1,22.5,23.43165Zm0-11.452a4.20468,4.20468,0,1,0,4.20468,4.20468A4.20935,4.20935,0,0,0,22.5,11.97968Z" />
  </g>
</svg>
