<svg xmlns="http://www.w3.org/2000/svg" viewBox="0 0 75 75" fill="#eee"><title>logo</title><path d="M27.31 74.16A2.22 2.22 0 0 0 29 75h33.13a2.2 2.2 0 0 0 2.06-1.42c0-.11.58-1.6.78-2.2.57-1.7 1.14-3.55 1.68-5.5a75.23 75.23 0 0 0 2-9.61c.83-6 .54-10.86-1.29-14.3-2-3.73-5.19-6.18-9.9-8l-.87-.32v-26A7.73 7.73 0 0 0 48.89 0h-1.1a7.71 7.71 0 0 0-6.16 3.07 10.69 10.69 0 0 0-1.18 2.28 7.7 7.7 0 0 0-3.69-.94h-1.1a7.73 7.73 0 0 0-7.72 7.73v35.75l-6.39-6a9.19 9.19 0 0 0-14.5 1.91l-.84 1.34a2.2 2.2 0 0 0 .14 2.54zm-16.51-28a4.79 4.79 0 0 1 7.75-1l10.1 9.43a2.21 2.21 0 0 0 3.71-1.61V12.14a3.32 3.32 0 0 1 3.31-3.31h1.1a3.31 3.31 0 0 1 3.31 3.31v21a2.21 2.21 0 1 0 4.41 0V7.73a3.32 3.32 0 0 1 3.31-3.32h1.1a3.32 3.32 0 0 1 3.3 3.32v27.56a2.2 2.2 0 0 0 1.56 2.11c5 1.54 8.07 3.52 9.72 6.65 1.29 2.43 1.54 6.48.82 11.63a71.09 71.09 0 0 1-1.92 9c-.51 1.86-1.06 3.63-1.61 5.25-.19.57-.2.61-.2.61H30.15z"/></svg>