
<svg width="45px" height="45px" viewBox="5085 -245 45 45" version="1.1" xmlns="http://www.w3.org/2000/svg" xmlns:xlink="http://www.w3.org/1999/xlink">
    <defs></defs>
    <path d="M5098.95,-239.60195 C5091.2628,-239.60195 5085,-233.33915 5085,-225.65195 C5085,-217.96415 5091.2628,-211.70195 5098.95,-211.70195 C5102.3064,-211.70195 5105.4,-212.89475 5107.8096,-214.88015 L5122.2936,-200.39555 C5122.821,-199.86815 5123.679,-199.86815 5124.2064,-200.39555 C5124.7338,-200.92295 5124.7338,-201.78095 5124.2064,-202.30835 L5109.7218,-216.79235 C5111.7072,-219.20195 5112.9,-222.29555 5112.9,-225.65195 C5112.9,-233.33915 5106.6372,-239.60195 5098.95,-239.60195 Z M5098.95,-236.90195 C5105.1798,-236.90195 5110.2,-231.88175 5110.2,-225.65195 C5110.2,-219.42215 5105.1798,-214.40195 5098.95,-214.40195 C5092.7202,-214.40195 5087.7,-219.42215 5087.7,-225.65195 C5087.7,-231.88175 5092.7202,-236.90195 5098.95,-236.90195 Z" id="Page-1" stroke="none" fill="#EEEEEE" fill-rule="evenodd"></path>
</svg>