
<svg width="49px" height="49px" viewBox="-2 -2 49 49" version="1.1" xmlns="http://www.w3.org/2000/svg" xmlns:xlink="http://www.w3.org/1999/xlink">
    <path d="M21.211,33.605 C21.938,34.344 23.117,34.34 23.844,33.598 L32.535,24.75 C33.945,23.336 31.828,21.215 30.418,22.629 L24.523,28.539 C24.23,28.832 23.996,28.73 23.996,28.316 L23.996,12.004 C23.996,11.172 23.332,10.5 22.5,10.5 C21.672,10.5 21.004,11.172 21.004,12.004 L21.004,28.316 C21.004,28.73 20.766,28.832 20.477,28.539 L14.582,22.629 C13.172,21.215 11.055,23.336 12.465,24.75 L21.211,33.605 Z" id="Fill-1" stroke="none" fill="#EEEEEE" fill-rule="evenodd"></path>
    <path d="M0,22.5 C1.77635684e-15,10.074 10.074,-7.10542736e-15 22.5,0 C34.926,0 45,10.074 45,22.5 C45,34.926 34.926,45 22.5,45 C10.074,45 0,34.926 0,22.5" id="Stroke-2" stroke="#EEEEEE" stroke-width="3" fill="none"></path>
</svg>