
<svg width="40px" height="45px" viewBox="256 168 40 45" version="1.1" xmlns="http://www.w3.org/2000/svg" xmlns:xlink="http://www.w3.org/1999/xlink">
    <g id="Page-1" stroke="none" stroke-width="1" fill="none" fill-rule="evenodd" transform="translate(256.000000, 168.000000)">
        <path d="M19.7604,11.7 C19.0146,11.7 18.4104,12.3048 18.4104,13.05 L18.4104,25.65 C18.4104,26.3952 19.0146,27 19.7604,27 C20.5056,27 21.1104,26.3952 21.1104,25.65 L21.1104,13.05 C21.1104,12.3048 20.5056,11.7 19.7604,11.7 Z" id="Fill-1" fill="#EEEEEE"></path>
        <path d="M39.7896,10.713 C39.7896,10.713 39.1548,8.8056 37.8798,7.533 C36.6072,6.2604 34.6992,5.6226 34.6992,5.6226 L30.654,9.6678 C28.4952,8.1912 26.0226,7.1436 23.3604,6.642 L23.3604,0.9 C23.3604,0.9 21.5604,0 19.7604,0 C17.9604,0 16.1604,0.9 16.1604,0.9 L16.1604,6.642 C7.2072,8.3346 0.4104,16.212 0.4104,25.65 C0.4104,36.3186 9.0912,45 19.7604,45 C30.429,45 39.1104,36.3186 39.1104,25.65 C39.1104,21.6138 37.8654,17.862 35.742,14.7588 L39.7896,10.713 Z M19.7604,42.3 C10.5798,42.3 3.1104,34.8306 3.1104,25.65 C3.1104,16.4694 10.5798,9 19.7604,9 C28.9404,9 36.4104,16.4694 36.4104,25.65 C36.4104,34.8306 28.9428,42.3 19.7604,42.3 Z" id="Fill-2" fill="#EEEEEE"></path>
    </g>
</svg>