<svg xmlns="http://www.w3.org/2000/svg" xmlns:xlink="http://www.w3.org/1999/xlink"><defs><style>
    .sprite-symbol-usage {display: none;}
    .sprite-symbol-usage:target {display: inline;}
  </style><symbol viewBox="0 0 45 45" id="checkpoint"><path d="M22.5 45l-1.257-1.844c-.033-.05-3.449-5.07-6.815-10.939-4.616-8.044-6.956-13.828-6.956-17.19a15.028 15.028 0 0130.056 0c0 3.363-2.34 9.146-6.954 17.19-3.366 5.87-6.782 10.888-6.815 10.94zm0-41.955a11.996 11.996 0 00-11.983 11.983c0 5.161 7.752 18.066 11.983 24.528 4.231-6.461 11.985-19.367 11.985-24.528A11.999 11.999 0 0022.5 3.045z" /><path d="M22.5 23.432a7.247 7.247 0 117.247-7.248 7.256 7.256 0 01-7.247 7.248zm0-11.452a4.205 4.205 0 104.205 4.204A4.21 4.21 0 0022.5 11.98z" /></symbol><symbol viewBox="0 0 75 75" id="logo"><path d="M27.31 74.16A2.22 2.22 0 0029 75h33.13a2.2 2.2 0 002.06-1.42c0-.11.58-1.6.78-2.2.57-1.7 1.14-3.55 1.68-5.5a75.23 75.23 0 002-9.61c.83-6 .54-10.86-1.29-14.3-2-3.73-5.19-6.18-9.9-8l-.87-.32v-26A7.73 7.73 0 0048.89 0h-1.1a7.71 7.71 0 00-6.16 3.07 10.69 10.69 0 00-1.18 2.28 7.7 7.7 0 00-3.69-.94h-1.1a7.73 7.73 0 00-7.72 7.73v35.75l-6.39-6a9.19 9.19 0 00-14.5 1.91l-.84 1.34a2.2 2.2 0 00.14 2.54zm-16.51-28a4.79 4.79 0 017.75-1l10.1 9.43a2.21 2.21 0 003.71-1.61V12.14a3.32 3.32 0 013.31-3.31h1.1a3.31 3.31 0 013.31 3.31v21a2.21 2.21 0 104.41 0V7.73a3.32 3.32 0 013.31-3.32h1.1a3.32 3.32 0 013.3 3.32v27.56a2.2 2.2 0 001.56 2.11c5 1.54 8.07 3.52 9.72 6.65 1.29 2.43 1.54 6.48.82 11.63a71.09 71.09 0 01-1.92 9c-.51 1.86-1.06 3.63-1.61 5.25-.19.57-.2.61-.2.61H30.15z" /></symbol><symbol viewBox="0 0 45 45" id="schedule"><path d="M21.26 11.7a1.35 1.35 0 00-1.35 1.35v12.6a1.35 1.35 0 002.7 0v-12.6a1.35 1.35 0 00-1.35-1.35z" /><path d="M41.29 10.713a9.273 9.273 0 00-1.91-3.18 9.325 9.325 0 00-3.18-1.91l-4.046 4.045a19.21 19.21 0 00-7.294-3.026V.9a9.31 9.31 0 00-3.6-.9 9.31 9.31 0 00-3.6.9v5.742a19.365 19.365 0 1019.582 8.117zM21.26 42.3a16.65 16.65 0 1116.65-16.65A16.67 16.67 0 0121.26 42.3z" /></symbol><symbol viewBox="0 0 45 45" id="share"><path d="M21.318 32.68a1.685 1.685 0 002.414-.007l7.967-8.11a1.373 1.373 0 00-1.94-1.945l-5.405 5.418c-.268.268-.483.175-.483-.205V12.88a1.371 1.371 0 10-2.742 0v14.95c0 .38-.219.473-.483.205l-5.404-5.418a1.373 1.373 0 00-1.94 1.945z" /><path d="M22.5 44.5a22 22 0 1122-22 22.025 22.025 0 01-22 22zm0-41.25A19.25 19.25 0 1041.75 22.5 19.272 19.272 0 0022.5 3.25z" /></symbol></defs><use id="checkpoint-usage" xlink:href="#checkpoint" class="sprite-symbol-usage" /><use id="logo-usage" xlink:href="#logo" class="sprite-symbol-usage" /><use id="schedule-usage" xlink:href="#schedule" class="sprite-symbol-usage" /><use id="share-usage" xlink:href="#share" class="sprite-symbol-usage" /></svg>