<svg xmlns="http://www.w3.org/2000/svg" viewBox="0 0 45 45" fill="#eee"><title>schedule</title>
  <g>
    <path d="M21.2604,11.7a1.35011,1.35011,0,0,0-1.35,1.35v12.6a1.35,1.35,0,0,0,2.7,0V13.05A1.35049,1.35049,0,0,0,21.2604,11.7Z" />
    <path d="M41.2896,10.713a9.27337,9.27337,0,0,0-1.9098-3.18,9.32463,9.32463,0,0,0-3.1806-1.9104L32.154,9.6678A19.21093,19.21093,0,0,0,24.8604,6.642V.9a9.30914,9.30914,0,0,0-3.6-.9,9.30914,9.30914,0,0,0-3.6.9V6.642A19.36545,19.36545,0,1,0,37.242,14.7588ZM21.2604,42.3a16.65,16.65,0,1,1,16.65-16.65A16.66917,16.66917,0,0,1,21.2604,42.3Z" />
  </g>
</svg>
