<svg xmlns="http://www.w3.org/2000/svg" viewBox="0 0 45 45" fill="#eee"><title>share</title>
  <g>
    <path d="M21.31842,32.67958a1.68489,1.68489,0,0,0,2.41358-.00641l7.96675-8.11067a1.3735,1.3735,0,0,0-1.94058-1.94425l-5.40375,5.4175c-.26859.26858-.48309.17508-.48309-.20442V12.87867a1.37135,1.37135,0,1,0-2.74266,0V27.83133c0,.3795-.21817.473-.48309.20442l-5.40375-5.4175a1.3735,1.3735,0,0,0-1.94058,1.94425Z" />
  </g>
  <g>
    <path d="M22.5,44.5a22,22,0,1,1,22-22A22.0252,22.0252,0,0,1,22.5,44.5Zm0-41.25A19.25,19.25,0,1,0,41.75,22.5,19.27163,19.27163,0,0,0,22.5,3.25Z" />
  </g>
</svg>
