<svg xmlns="http://www.w3.org/2000/svg" viewBox="0 0 45 45"><title>chcekpoint</title><path d="M22.5 45l-1.257-1.844c-.033-.05-3.449-5.07-6.815-10.939-4.616-8.044-6.956-13.828-6.956-17.19a15.028 15.028 0 0 1 30.056 0c0 3.363-2.34 9.146-6.954 17.19-3.366 5.87-6.782 10.888-6.815 10.94zm0-41.955a11.996 11.996 0 0 0-11.983 11.983c0 5.161 7.752 18.066 11.983 24.528 4.231-6.461 11.985-19.367 11.985-24.528A11.999 11.999 0 0 0 22.5 3.045z"/><path d="M22.5 23.432a7.247 7.247 0 1 1 7.247-7.248 7.256 7.256 0 0 1-7.247 7.248zm0-11.452a4.205 4.205 0 1 0 4.205 4.204A4.21 4.21 0 0 0 22.5 11.98z"/></svg>