
<svg width="45px" height="45px" viewBox="89 356 45 45" version="1.1" xmlns="http://www.w3.org/2000/svg" xmlns:xlink="http://www.w3.org/1999/xlink">
    <defs></defs>
    <rect id="Rectangle" stroke="none" fill="#2271B3" fill-rule="evenodd" x="89" y="356" width="45" height="45"></rect>
    <path d="M105.57183,392.6656 C105.74063,392.8764 105.99543,393 106.26423,393 L119.50023,393 C119.86583,393 120.19383,392.7736 120.32343,392.4328 C120.34063,392.3876 120.55463,391.7936 120.63463,391.5548 C120.86423,390.8764 121.09223,390.136 121.30623,389.3564 C121.67023,388.0344 121.95183,386.7376 122.12023,385.514 C122.45183,383.1172 122.33463,381.172 121.60303,379.792 C120.81103,378.3 119.52503,377.3204 117.64383,376.6048 C117.46903,376.5392 117.29383,376.478 117.29383,376.478 L117.29383,366.0908 C117.29383,364.3844 115.91103,363 114.20463,363 L113.76423,363 C112.75783,363 111.86423,363.4828 111.30023,364.228 C111.03463,364.5796 110.82823,365.1392 110.82823,365.1392 C110.38903,364.9 109.88583,364.764 109.35183,364.764 L108.91263,364.764 C107.20623,364.764 105.82343,366.1484 105.82343,367.8548 L105.82343,382.1564 L103.26743,379.7608 C101.43743,378.0532 98.79703,378.4016 97.46903,380.5248 L97.13463,381.0624 C96.93583,381.378 96.95943,381.7844 97.19063,382.0764 L105.57183,392.6656 Z M98.96583,381.4608 C99.70463,380.278 101.04543,380.1 102.06423,381.05 L106.10303,384.822 C106.66743,385.3484 107.58743,384.9484 107.58743,384.1764 L107.58743,367.8548 C107.58743,367.1236 108.18143,366.5296 108.91263,366.5296 L109.35183,366.5296 C110.08303,366.5296 110.67663,367.122 110.67663,367.8532 L110.67663,376.236 C110.67663,377.4124 112.44063,377.4124 112.44063,376.236 L112.44063,366.0908 C112.44063,365.3592 113.03463,364.764 113.76423,364.764 L114.20463,364.764 C114.93583,364.764 115.52983,365.358 115.52983,366.0908 L115.52983,377.1172 C115.52983,377.5064 115.78303,377.8484 116.15463,377.9608 C118.16903,378.5764 119.38143,379.3704 120.04383,380.6204 C120.55943,381.5908 120.65783,383.2124 120.37183,385.2736 C120.21583,386.4124 119.94863,387.636 119.60463,388.8892 C119.40023,389.6328 119.18143,390.342 118.96263,390.9908 C118.88583,391.2172 118.88143,391.236 118.88143,391.236 L106.70623,391.236 L98.96583,381.4608 Z" id="Page-1" stroke="none" fill="#FFFFFF" fill-rule="evenodd"></path>
</svg>